<svg width="20" height="25" viewBox="0 0 20 25" fill="none" xmlns="http://www.w3.org/2000/svg">
<path d="M9.82214 1C14.6942 1 18.6434 4.94926 18.6434 9.82129C18.6434 12.2567 17.6582 14.4603 16.0614 16.0576C15.6576 16.4616 15.1023 16.9242 14.4462 17.4658C13.8057 17.9945 13.0847 18.5863 12.41 19.2109C11.7366 19.8345 11.0772 20.5202 10.5643 21.252C10.2669 21.6763 10.0059 22.137 9.82214 22.6279C9.63848 22.1372 9.37829 21.6762 9.08093 21.252C8.56802 20.5202 7.90773 19.8345 7.23425 19.2109C6.5596 18.5863 5.83859 17.9945 5.19812 17.4658C4.54206 16.9242 3.98765 16.4616 3.58386 16.0576H3.58289C1.98619 14.4604 1.00085 12.2566 1.00085 9.82129C1.00093 4.94931 4.95016 1.00008 9.82214 1Z" stroke="#07131E" stroke-width="2"/>
<path d="M9.82263 13.259C11.7211 13.259 13.2601 11.72 13.2601 9.82153C13.2601 7.92305 11.7211 6.38403 9.82263 6.38403C7.92417 6.38403 6.38513 7.92305 6.38513 9.82153C6.38513 11.72 7.92417 13.259 9.82263 13.259Z" fill="#07131E"/>
</svg>
