<svg width="16" height="18" viewBox="0 0 16 18" fill="none" xmlns="http://www.w3.org/2000/svg">
<circle cx="7.69783" cy="3.80769" r="3.25385" fill="#A3AAB1" stroke="#A3AAB1" stroke-width="1.10769"/>
<mask id="path-2-inside-1_256_318" fill="white">
<path d="M7.69824 9.20947C10.6165 9.20956 13.2027 10.6314 14.8017 12.8202C16.6061 15.2901 14.0095 17.9995 10.9506 17.9995H4.44584C1.38697 17.9995 -1.20968 15.2901 0.594709 12.8202C2.19368 10.6314 4.77992 9.20947 7.69824 9.20947Z"/>
</mask>
<path d="M7.69824 9.20947C10.6165 9.20956 13.2027 10.6314 14.8017 12.8202C16.6061 15.2901 14.0095 17.9995 10.9506 17.9995H4.44584C1.38697 17.9995 -1.20968 15.2901 0.594709 12.8202C2.19368 10.6314 4.77992 9.20947 7.69824 9.20947Z" fill="#A3AAB1"/>
<path d="M7.69824 9.20947L7.69827 8.10178H7.69824V9.20947ZM14.8017 12.8202L13.9073 13.4736L14.8017 12.8202ZM7.69824 9.20947L7.69821 10.3172C10.248 10.3172 12.5079 11.5581 13.9073 13.4736L14.8017 12.8202L15.6961 12.1668C13.8975 9.70479 10.985 8.10188 7.69827 8.10178L7.69824 9.20947ZM10.9506 17.9995V16.8918H4.44584V17.9995V19.1072H10.9506V17.9995ZM0.594709 12.8202L1.48915 13.4736C2.88852 11.558 5.1484 10.3172 7.69824 10.3172V9.20947V8.10178C4.41145 8.10178 1.49884 9.70471 -0.299736 12.1667L0.594709 12.8202ZM4.44584 17.9995V16.8918C3.22031 16.8918 2.1324 16.3425 1.55421 15.6351C1.27211 15.2899 1.13132 14.9347 1.11061 14.6025C1.09062 14.2818 1.17667 13.9013 1.48915 13.4736L0.594709 12.8202L-0.299736 12.1667C-0.88945 12.974 -1.15546 13.8584 -1.10048 14.7404C-1.04621 15.6109 -0.684981 16.3961 -0.161109 17.0371C0.87265 18.3019 2.6125 19.1072 4.44584 19.1072V17.9995ZM14.8017 12.8202L13.9073 13.4736C14.2198 13.9014 14.3058 14.2818 14.2858 14.6026C14.2651 14.9347 14.1243 15.2899 13.8423 15.6351C13.2641 16.3425 12.1762 16.8918 10.9506 16.8918V17.9995V19.1072C12.784 19.1072 14.5238 18.3019 15.5576 17.0371C16.0814 16.3961 16.4427 15.6109 16.4969 14.7404C16.5519 13.8584 16.2859 12.974 15.6961 12.1668L14.8017 12.8202Z" fill="#A3AAB1" mask="url(#path-2-inside-1_256_318)"/>
</svg>
