<svg width="16" height="18" viewBox="0 0 16 18" fill="none" xmlns="http://www.w3.org/2000/svg">
<path d="M4.25562 0C4.80775 0.000179254 5.25562 0.447826 5.25562 1V14.5889L6.82202 13.0234C7.21256 12.6331 7.84562 12.633 8.23608 13.0234C8.62625 13.4139 8.62633 14.0471 8.23608 14.4375L4.98022 17.6934C4.95279 17.7208 4.92297 17.745 4.89331 17.7686C4.72016 17.9124 4.49832 17.9999 4.25562 18C3.97956 18 3.72954 17.8879 3.54858 17.707C3.5468 17.7053 3.54451 17.7039 3.54272 17.7021L0.292725 14.4521C-0.0977552 14.0617 -0.0976663 13.4286 0.292725 13.0381C0.683255 12.6476 1.31629 12.6476 1.70679 13.0381L3.25562 14.5869V1C3.25562 0.447715 3.70333 0 4.25562 0ZM11.5115 0C11.7542 7.91384e-05 11.976 0.0875722 12.1492 0.231445C12.1788 0.255006 12.2086 0.279224 12.2361 0.306641L15.4919 3.5625C15.8822 3.95294 15.8821 4.58607 15.4919 4.97656C15.1015 5.36703 14.4684 5.36691 14.0779 4.97656L12.5115 3.41113V17C12.5115 17.5522 12.0636 17.9998 11.5115 18C10.9592 18 10.5115 17.5523 10.5115 17V3.41309L8.96265 4.96191C8.57215 5.35241 7.93911 5.35237 7.54858 4.96191C7.15819 4.57138 7.1581 3.93833 7.54858 3.54785L10.7986 0.297852C10.8004 0.296095 10.8027 0.294721 10.8044 0.292969C10.9854 0.112102 11.2354 0 11.5115 0Z" fill="#07131E"/>
</svg>
