<svg width="40" height="40" viewBox="0 0 40 40" fill="none" xmlns="http://www.w3.org/2000/svg">
<path d="M20 40C31.0457 40 40 31.0457 40 20C40 8.95432 31.0457 0 20 0C8.95432 0 0 8.95432 0 20C0 31.0457 8.95432 40 20 40Z" fill="#2AABEE"/>
<path fill-rule="evenodd" clip-rule="evenodd" d="M9.05292 19.7895C14.8833 17.2493 18.7712 15.5746 20.7165 14.7655C26.2707 12.4553 27.4248 12.054 28.1771 12.0408C28.3425 12.0378 28.7124 12.0789 28.952 12.2733C29.1544 12.4375 29.21 12.6593 29.2367 12.8149C29.2633 12.9705 29.2965 13.3252 29.2701 13.6022C28.9692 16.7647 27.6668 24.4392 27.0043 27.9812C26.7239 29.48 26.1719 29.9825 25.6374 30.0317C24.476 30.1385 23.594 29.2641 22.4692 28.5267C20.7089 27.3729 19.7144 26.6545 18.0058 25.5286C16.0312 24.2273 17.3112 23.5121 18.4366 22.3433C18.7311 22.0375 23.8484 17.3829 23.9475 16.9606C23.9599 16.9078 23.9713 16.7109 23.8544 16.607C23.7375 16.5031 23.5648 16.5386 23.4403 16.5669C23.2638 16.6069 20.4517 18.4657 15.0042 22.1429C14.206 22.6909 13.483 22.958 12.8352 22.944C12.1212 22.9286 10.7475 22.5402 9.72636 22.2083C8.47388 21.8012 7.4784 21.5859 7.56508 20.8945C7.61023 20.5343 8.1062 20.166 9.05292 19.7895Z" fill="#FCFEFF"/>
</svg>
