<svg width="40" height="40" viewBox="0 0 40 40" fill="none" xmlns="http://www.w3.org/2000/svg">
<path d="M40 20C40 8.95432 31.0457 0 20 0C8.95432 0 0 8.95432 0 20C0 31.0457 8.95432 40 20 40C31.0457 40 40 31.0457 40 20Z" fill="#25D366"/>
<path fill-rule="evenodd" clip-rule="evenodd" d="M25.3597 21.8143C25.0908 21.6797 23.7687 21.0292 23.5221 20.9393C23.2756 20.8496 23.0963 20.8048 22.917 21.074C22.7378 21.3431 22.2224 21.9489 22.0655 22.1284C21.9087 22.3079 21.7518 22.3304 21.4829 22.1957C21.2139 22.0611 20.3475 21.7772 19.3203 20.8609C18.5208 20.1478 17.981 19.2672 17.8243 18.998C17.6674 18.7287 17.8075 18.5832 17.9421 18.4491C18.0631 18.3286 18.2111 18.135 18.3455 17.978C18.48 17.8209 18.5248 17.7087 18.6144 17.5293C18.7041 17.3498 18.6593 17.1928 18.592 17.0582C18.5248 16.9236 17.987 15.5999 17.7629 15.0613C17.5446 14.537 17.3229 14.608 17.1578 14.5997C17.0011 14.5919 16.8216 14.5903 16.6424 14.5903C16.4631 14.5903 16.1717 14.6576 15.9252 14.9268C15.6787 15.196 14.984 15.8466 14.984 17.1703C14.984 18.494 15.9476 19.7727 16.0821 19.9522C16.2166 20.1317 17.9784 22.848 20.6762 24.0129C21.3178 24.29 21.8186 24.4555 22.2092 24.5794C22.8534 24.7841 23.4397 24.7552 23.9031 24.686C24.4198 24.6088 25.4942 24.0354 25.7183 23.4073C25.9423 22.779 25.9423 22.2405 25.8751 22.1284C25.8079 22.0162 25.6287 21.9489 25.3597 21.8143ZM20.4529 28.5141H20.4492C18.844 28.5135 17.2696 28.0822 15.8962 27.2672L15.5694 27.0733L12.1838 27.9615L13.0875 24.6604L12.8748 24.3219C11.9793 22.8976 11.5063 21.2515 11.507 19.5612C11.509 14.629 15.522 10.6162 20.4564 10.6162C22.8458 10.6171 25.0919 11.5488 26.7809 13.2397C28.4698 14.9305 29.3994 17.1781 29.3985 19.5684C29.3965 24.501 25.3835 28.5141 20.4529 28.5141ZM28.0663 11.9548C26.0343 9.92044 23.3319 8.79964 20.4527 8.79844C14.5204 8.79844 9.69217 13.6264 9.68985 19.5605C9.68905 21.4575 10.1846 23.309 11.1265 24.9412L9.59961 30.5184L15.3051 29.0218C16.8772 29.8792 18.6471 30.3312 20.4485 30.3318H20.4529C26.3847 30.3318 31.2133 25.5034 31.2157 19.5692C31.2168 16.6933 30.0983 13.9892 28.0663 11.9548Z" fill="#FCFEFF"/>
</svg>
